Coordinates
version=1
nRows=21
nColumns=22
inDegrees=yes

Units are S.I. units (second, meters, Newtons, ...)
If the header above contains a line with 'inDegrees', this indicates whether rotational values are in degrees (yes) or radians (no).

endheader
time	pelvis_tilt	pelvis_list	pelvis_rotation	pelvis_tx	pelvis_ty	pelvis_tz	hip_flexion_r	hip_adduction_r	hip_rotation_r	knee_angle_r	ankle_angle_r	subtalar_angle_r	hip_flexion_l	hip_adduction_l	hip_rotation_l	knee_angle_l	ankle_angle_l	subtalar_angle_l	lumbar_extension	lumbar_bending	lumbar_rotation
      0.01000000	     -7.28547483	     -0.93896724	     -8.15439648	     -1.01017781	      0.88397350	     -0.02532141	      6.05300677	     -4.39902426	      5.84792584	     -6.57466759	     12.55420509	      3.57115930	      4.12275343	     -7.19818662	     -7.97458504	     -8.12424989	     14.24959912	      8.21210724	      3.13157057	      0.94815570	      9.33177006
      0.02000000	     -7.27371428	     -0.90976986	     -8.14942139	     -1.01013413	      0.88396992	     -0.02539766	      6.08417229	     -4.43501834	      5.85891835	     -6.65704460	     12.61902981	      3.57069334	      4.12491741	     -7.16008084	     -7.96388862	     -8.14676674	     14.25371376	      8.20842264	      3.10749615	      0.89388651	      9.34538048
      0.03000000	     -7.26825729	     -0.88375321	     -8.14053394	     -1.01008876	      0.88396104	     -0.02549440	      6.12509848	     -4.46735313	      5.86647993	     -6.74616233	     12.66661686	      3.57159287	      4.13778480	     -7.12539641	     -7.94649465	     -8.17634758	     14.26649845	      8.19349645	      3.08540367	      0.84145257	      9.36184649
      0.04000000	     -7.26507744	     -0.85830190	     -8.12503214	     -1.01002727	      0.88394809	     -0.02561340	      6.16739212	     -4.50001028	      5.86742976	     -6.83745322	     12.71897772	      3.57262908	      4.15378149	     -7.08979964	     -7.92402195	     -8.20609300	     14.27741123	      8.17163494	      3.06486334	      0.78786688	      9.37573592
      0.05000000	     -7.26223682	     -0.83478654	     -8.10381493	     -1.00994735	      0.88393717	     -0.02575046	      6.20572695	     -4.53183599	      5.86057609	     -6.92495925	     12.76760526	      3.57382033	      4.16755420	     -7.05469929	     -7.89643535	     -8.23108906	     14.28665351	      8.14750055	      3.04383808	      0.73495878	      9.38635786
      0.06000000	     -7.26048994	     -0.81347867	     -8.07750963	     -1.00984649	      0.88392976	     -0.02590313	      6.23836553	     -4.56245847	      5.84581247	     -7.00420729	     12.81254247	      3.57583136	      4.17867303	     -7.02046429	     -7.86402217	     -8.24990550	     14.29168141	      8.12208304	      3.02438435	      0.68337776	      9.39417806
      0.07000000	     -7.26046869	     -0.79515862	     -8.04719022	     -1.00972375	      0.88392295	     -0.02607113	      6.26304640	     -4.59122300	      5.82428525	     -7.06979124	     12.84943175	      3.57839869	      4.18646786	     -6.98788965	     -7.82954751	     -8.26008557	     14.29441829	      8.09821682	      3.00717050	      0.63544444	      9.39847318
      0.08000000	     -7.26320281	     -0.77970498	     -8.01581126	     -1.00958410	      0.88391779	     -0.02623880	      6.28049921	     -4.61726651	      5.79903414	     -7.11860126	     12.87610458	      3.58127410	      4.19197546	     -6.95870359	     -7.79219905	     -8.26372789	     14.29384581	      8.07714536	      2.99272614	      0.58917743	      9.40350335
      0.09000000	     -7.27292274	     -0.78801337	     -7.99399407	     -1.00940800	      0.88391089	     -0.02639688	      6.27789498	     -4.61688502	      5.80090721	     -7.12505338	     12.87644727	      3.58152859	      4.19395077	     -6.95619682	     -7.79345454	     -8.25917279	     14.29478816	      8.07600071	      2.98705875	      0.57514590	      9.41039711
      0.10000000	     -7.28601752	     -0.74974819	     -7.95609439	     -1.00922401	      0.88388268	     -0.02661616	      6.29959635	     -4.67199897	      5.74478826	     -7.16160697	     12.90877419	      3.58392344	      4.19735909	     -6.89642435	     -7.73713108	     -8.23383299	     14.28827694	      8.05388331	      2.99101995	      0.50840121	      9.40723959
      0.11000000	     -7.30738057	     -0.74821141	     -7.93845098	     -1.00901107	      0.88384973	     -0.02678774	      6.30075798	     -4.68345411	      5.72846974	     -7.15187976	     12.91273380	      3.58609666	      4.20045317	     -6.88237530	     -7.73234267	     -8.21435992	     14.28780671	      8.04725883	      3.00308156	      0.48620835	      9.43067160
      0.12000000	     -7.34501626	     -0.71640172	     -7.92724626	     -1.00881849	      0.88378891	     -0.02697592	      6.32690626	     -4.72748134	      5.72692759	     -7.14173566	     12.91299083	      3.59488520	      4.21292651	     -6.83431243	     -7.71490967	     -8.17039005	     14.26679066	      8.03171232	      3.03263760	      0.43518224	      9.44371877
      0.13000000	     -7.39090254	     -0.69172102	     -7.93009998	     -1.00860238	      0.88371170	     -0.02714363	      6.35404368	     -4.76193121	      5.73229828	     -7.11814181	     12.91293668	      3.60579393	      4.22641366	     -6.79689077	     -7.72353912	     -8.12423734	     14.25686022	      8.02042025	      3.07395172	      0.39476154	      9.47831790
      0.14000000	     -7.43158145	     -0.68348278	     -7.92879278	     -1.00834958	      0.88363530	     -0.02732577	      6.36161197	     -4.78145587	      5.71737502	     -7.07941211	     12.91618619	      3.60912973	      4.23171289	     -6.77591045	     -7.74165826	     -8.08168548	     14.26450420	      8.01888932	      3.11024294	      0.37400913	      9.51859687
      0.15000000	     -7.49996101	     -0.63570046	     -7.95288294	     -1.00812356	      0.88352245	     -0.02749990	      6.40841908	     -4.84032871	      5.76712771	     -7.03430760	     12.89544948	      3.62449942	      4.25641747	     -6.71426980	     -7.75852768	     -8.01523345	     14.23694773	      8.01763232	      3.17942363	      0.31758141	      9.57490719
      0.16000000	     -7.56439767	     -0.60485793	     -7.96664628	     -1.00784229	      0.88341337	     -0.02767715	      6.44004068	     -4.88246509	      5.78598790	     -6.98588601	     12.88968156	      3.64207741	      4.27318068	     -6.67107016	     -7.78727489	     -7.94962282	     14.22532938	      8.01554261	      3.24795422	      0.27608259	      9.63596500
      0.17000000	     -7.62558618	     -0.58090954	     -7.97427446	     -1.00752393	      0.88331360	     -0.02786509	      6.45533918	     -4.91988417	      5.79171129	     -6.92213063	     12.87862121	      3.66011355	      4.28337736	     -6.63398991	     -7.80822481	     -7.88220905	     14.21702323	      8.01549662	      3.31363388	      0.24124314	      9.69492160
      0.18000000	     -7.67490037	     -0.57706853	     -7.96849286	     -1.00715965	      0.88323014	     -0.02805999	      6.44724321	     -4.93846786	      5.75798704	     -6.85509852	     12.88250724	      3.66661781	      4.28332155	     -6.61779510	     -7.82775928	     -7.82651527	     14.22539591	      8.01629669	      3.36589054	      0.22341853	      9.75397296
      0.19000000	     -7.73774211	     -0.55053636	     -7.96390335	     -1.00677799	      0.88314012	     -0.02826838	      6.44075369	     -4.98329589	      5.77238613	     -6.75823318	     12.83939624	      3.69176842	      4.28363400	     -6.57461153	     -7.82435513	     -7.73717765	     14.20214205	      8.02245011	      3.43742993	      0.18442019	      9.80522417
      0.20000000	     -7.78527546	     -0.55268981	     -7.95004707	     -1.00637023	      0.88306679	     -0.02845679	      6.42088401	     -4.99608671	      5.72567370	     -6.68409167	     12.84385578	      3.69961827	      4.28000448	     -6.56475399	     -7.83869246	     -7.68159604	     14.20937840	      8.02447919	      3.48719446	      0.16890553	      9.86679421
      0.21000000	     -7.83780154	     -0.55092424	     -7.93180140	     -1.00594456	      0.88298894	     -0.02864841	      6.39683215	     -5.01387281	      5.68677467	     -6.59395625	     12.83073557	      3.71057973	      4.27582489	     -6.54979034	     -7.84021880	     -7.61312255	     14.21258108	      8.02955162	      3.54377382	      0.14965599	      9.92037424
